HIERARCHY
ROOT Pelvis
{
	OFFSET 0.000000 0.000000 0.000000
	CHANNELS 6 Xposition Yposition Zposition Xrotation Yrotation Zrotation
	JOINT LeftUpLeg_virtual
	{
		OFFSET 0.000000 0.000000 0.000000
		CHANNELS 3 Xrotation Yrotation Zrotation
		JOINT LeftUpLeg
		{
			OFFSET 18.735201 -5.666702 -4.541200
			CHANNELS 3 Xrotation Yrotation Zrotation
			JOINT LeftLeg
			{
				OFFSET -0.021200 -31.938179 0.493100
				CHANNELS 3 Xrotation Yrotation Zrotation
				JOINT LeftFoot
				{
					OFFSET 0.021200 -31.938179 -4.336299
					CHANNELS 3 Xrotation Yrotation Zrotation
					JOINT LeftToeBase
					{
						OFFSET 0.943001 -26.722000 15.023500
						CHANNELS 3 Xrotation Yrotation Zrotation
						End Site
						{
							OFFSET 0 0 0
						}
					}
				}
			}
		}
	}
	JOINT RightUpLeg_virtual
	{
		OFFSET 0.000000 0.000000 0.000000
		CHANNELS 3 Xrotation Yrotation Zrotation
		JOINT RightUpLeg
		{
			OFFSET -18.735201 -5.666702 -4.541200
			CHANNELS 3 Xrotation Yrotation Zrotation
			JOINT RightLeg
			{
				OFFSET 0.018946 -31.938133 0.493100
				CHANNELS 3 Xrotation Yrotation Zrotation
				JOINT RightFoot
				{
					OFFSET -0.018946 -31.938126 -4.336299
					CHANNELS 3 Xrotation Yrotation Zrotation
					JOINT RightToeBase
					{
						OFFSET -0.943001 -26.722004 15.023500
						CHANNELS 3 Xrotation Yrotation Zrotation
						End Site
						{
							OFFSET 0 0 0
						}
					}
				}
			}
		}
	}
	JOINT Hips_virtual
	{
		OFFSET 0.000000 0.000000 0.000000
		CHANNELS 3 Xrotation Yrotation Zrotation
		JOINT Hips
		{
			OFFSET -0.000000 -0.000000 -0.000000
			CHANNELS 3 Xrotation Yrotation Zrotation
			JOINT Spine
			{
				OFFSET 0.000000 10.199997 -0.299500
				CHANNELS 3 Xrotation Yrotation Zrotation
				JOINT Spine1
				{
					OFFSET 0.000000 11.900002 -1.516600
					CHANNELS 3 Xrotation Yrotation Zrotation
					JOINT Spine2
					{
						OFFSET 0.000000 13.600006 -2.842500
						CHANNELS 3 Xrotation Yrotation Zrotation
						JOINT Neck_virtual
						{
							OFFSET 0.000000 0.000000 0.000000
							CHANNELS 3 Xrotation Yrotation Zrotation
							JOINT Neck
							{
								OFFSET 0.000000 9.624100 -2.890100
								CHANNELS 3 Xrotation Yrotation Zrotation
								JOINT Head
								{
									OFFSET 0.000000 14.068802 -1.351900
									CHANNELS 3 Xrotation Yrotation Zrotation
									End Site
									{
										OFFSET 0 0 0
									}
								}
							}
						}
						JOINT LeftShoulder_virtual
						{
							OFFSET 0.000000 0.000000 0.000000
							CHANNELS 3 Xrotation Yrotation Zrotation
							JOINT LeftShoulder
							{
								OFFSET 15.263000 10.923401 -0.547700
								CHANNELS 3 Xrotation Yrotation Zrotation
								JOINT LeftArm
								{
									OFFSET 25.438599 -2.830597 -13.032500
									CHANNELS 3 Xrotation Yrotation Zrotation
									JOINT LeftForeArm
									{
										OFFSET 29.960503 0.000000 0.000000
										CHANNELS 3 Xrotation Yrotation Zrotation
										JOINT LeftHand
										{
											OFFSET 27.849251 0.000000 0.000000
											CHANNELS 3 Xrotation Yrotation Zrotation
											End Site
											{
												OFFSET 0 0 0
											}
										}
									}
								}
							}
						}
						JOINT RightShoulder_virtual
						{
							OFFSET 0.000000 0.000000 0.000000
							CHANNELS 3 Xrotation Yrotation Zrotation
							JOINT RightShoulder
							{
								OFFSET -15.263000 10.923401 -0.547700
								CHANNELS 3 Xrotation Yrotation Zrotation
								JOINT RightArm
								{
									OFFSET -25.438599 -2.830597 -13.032500
									CHANNELS 3 Xrotation Yrotation Zrotation
									JOINT RightForeArm
									{
										OFFSET -29.960503 0.000000 0.000000
										CHANNELS 3 Xrotation Yrotation Zrotation
										JOINT RightHand
										{
											OFFSET -27.849251 0.000000 0.000000
											CHANNELS 3 Xrotation Yrotation Zrotation
											End Site
											{
												OFFSET 0 0 0
											}
										}
									}
								}
							}
						}
					}
				}
			}
		}
	}
}
MOTION
Frames: 9
Frame Time: 0.03333333
0.326822 94.499611 4.818679 0.000000 0.000000 0.000000 9.937750 0.985688 -5.956823 -28.328479 13.633463 10.690075 29.157497 1.476980 1.253798 -17.816186 1.050906 -2.332346 0.000000 0.000000 0.000000 6.811646 -1.469467 0.994442 -20.550632 -5.683971 -13.636166 32.718088 -6.954876 0.557296 -15.391688 -11.178654 7.505356 0.000000 0.000000 0.000000 -0.811143 -5.634945 0.197283 -3.434359 -9.252668 1.342140 6.165886 -3.068492 -0.756377 1.828279 -0.664605 -0.528240 0.000000 0.000000 0.000000 1.806778 2.428771 -1.772655 -1.186548 1.036652 -0.644571 0.000000 0.000000 0.000000 0.369492 1.735220 -1.738657 0.234691 -4.094009 -10.468841 5.279164 6.325194 -61.639035 2.614418 -22.830705 -7.433064 0.000000 0.000000 0.000000 -0.619437 1.765237 -1.376418 -1.457016 10.898527 2.755152 2.129753 -0.013107 57.330347 0.873574 33.731074 8.967793 0.000000 0.000000 0.000000 
0.373947 94.470428 4.808074 0.000000 0.000000 0.000000 9.865219 1.009795 -6.017218 -28.402421 13.642662 10.625753 29.182144 1.463259 1.288607 -17.812531 1.021168 -2.296249 0.000000 0.000000 0.000000 6.852043 -1.323046 0.956596 -20.479566 -5.643462 -13.652733 32.851588 -6.961452 0.628522 -15.264969 -11.214441 7.608913 0.000000 0.000000 0.000000 -0.796836 -5.551474 0.210658 -3.426400 -8.953119 1.366297 6.104926 -3.175308 -0.723763 1.793288 -0.696605 -0.497982 0.000000 0.000000 0.000000 1.765909 2.434169 -1.757429 -1.212238 1.031643 -0.639218 0.000000 0.000000 0.000000 0.293175 1.720265 -1.722771 0.205732 -4.231117 -10.377781 5.469967 6.243352 -61.711490 2.709111 -22.869533 -7.438009 0.000000 0.000000 0.000000 -0.630629 1.777944 -1.413997 -1.409473 10.813117 2.724328 2.365592 0.013991 57.529229 0.978845 33.565923 9.023056 0.000000 0.000000 0.000000 
0.447282 94.414673 4.788257 0.000000 0.000000 0.000000 9.733639 1.088683 -6.130864 -28.541984 13.668557 10.511437 29.243134 1.435756 1.351996 -17.795303 0.964426 -2.232449 0.000000 0.000000 0.000000 6.930630 -1.055251 0.887711 -20.345368 -5.570503 -13.682897 33.089176 -6.967841 0.756908 -15.039540 -11.273111 7.799070 0.000000 0.000000 0.000000 -0.762918 -5.403600 0.239122 -3.421216 -8.371816 1.394213 5.990630 -3.367655 -0.662385 1.729661 -0.757819 -0.443021 0.000000 0.000000 0.000000 1.691633 2.445918 -1.727154 -1.258722 1.021690 -0.628536 0.000000 0.000000 0.000000 0.147294 1.690474 -1.694384 0.147431 -4.492080 -10.208451 5.830555 6.081180 -61.835376 2.881850 -22.982535 -7.446140 0.000000 0.000000 0.000000 -0.644677 1.800218 -1.482666 -1.319242 10.645603 2.667572 2.802945 0.074429 57.886803 1.185171 33.256246 9.118832 0.000000 0.000000 0.000000 
0.517968 94.337471 4.762231 0.000000 0.000000 0.000000 9.564195 1.266629 -6.285101 -28.734199 13.721614 10.370458 29.355409 1.393527 1.433450 -17.751388 0.884625 -2.155578 0.000000 0.000000 0.000000 7.041154 -0.710153 0.799225 -20.164254 -5.478714 -13.721783 33.385295 -6.964000 0.918684 -14.759279 -11.334088 8.046023 0.000000 0.000000 0.000000 -0.700778 -5.219749 0.285770 -3.433652 -7.547305 1.398127 5.841589 -3.610670 -0.579523 1.648894 -0.843064 -0.372523 0.000000 0.000000 0.000000 1.596923 2.465540 -1.682929 -1.317905 1.007262 -0.612880 0.000000 0.000000 0.000000 -0.054905 1.646732 -1.659131 0.061017 -4.852637 -9.985147 6.321046 5.846968 -61.980408 3.103153 -23.218960 -7.455815 0.000000 0.000000 0.000000 -0.648582 1.827118 -1.571565 -1.194873 10.403967 2.594088 3.384935 0.178687 58.338558 1.481523 32.841179 9.232148 0.000000 0.000000 0.000000 
0.566167 94.246178 4.733600 0.000000 0.000000 0.000000 9.377670 1.577677 -6.464652 -28.966129 13.809089 10.227086 29.526795 1.334076 1.521303 -17.672566 0.784991 -2.082599 0.000000 0.000000 0.000000 7.171985 -0.340160 0.703933 -19.959291 -5.383292 -13.764061 33.696909 -6.941239 1.087362 -14.466443 -11.376746 8.314533 0.000000 0.000000 0.000000 -0.601850 -5.024777 0.354173 -3.473276 -6.541137 1.359365 5.689036 -3.867239 -0.484922 1.565104 -0.945306 -0.296324 0.000000 0.000000 0.000000 1.496896 2.494349 -1.627508 -1.381072 0.989630 -0.593274 0.000000 0.000000 0.000000 -0.294651 1.591591 -1.623101 -0.048459 -5.280185 -9.740619 6.886506 5.561461 -62.122285 3.336631 -23.611592 -7.468082 0.000000 0.000000 0.000000 -0.630113 1.853662 -1.668447 -1.046828 10.102280 2.516300 4.048648 0.337232 58.818126 1.847542 32.373389 9.340723 0.000000 0.000000 0.000000 
0.591306 94.149811 4.704231 0.000000 0.000000 0.000000 9.188419 2.028389 -6.654921 -29.227568 13.930902 10.099277 29.752929 1.253936 1.605852 -17.559250 0.667126 -2.028136 0.000000 0.000000 0.000000 7.307544 0.006353 0.612894 -19.755735 -5.297098 -13.805137 33.996829 -6.895366 1.240566 -14.188256 -11.386684 8.572444 0.000000 0.000000 0.000000 -0.461828 -4.831608 0.446592 -3.537692 -5.435379 1.277286 5.571691 -4.107528 -0.389343 1.491522 -1.056283 -0.222299 0.000000 0.000000 0.000000 1.405016 2.532434 -1.565302 -1.441142 0.970990 -0.571491 0.000000 0.000000 0.000000 -0.549788 1.529743 -1.591125 -0.171706 -5.735976 -9.510859 7.461547 5.257995 -62.252257 3.545157 -24.155164 -7.488166 0.000000 0.000000 0.000000 -0.582481 1.875944 -1.762056 -0.885644 9.760469 2.448599 4.738625 0.554539 59.274806 2.254238 31.909271 9.429183 0.000000 0.000000 0.000000 
0.610576 94.057808 4.672655 0.000000 0.000000 0.000000 9.003094 2.594301 -6.844560 -29.510392 14.079408 9.994991 30.020290 1.150682 1.681416 -17.417848 0.531728 -2.000375 0.000000 0.000000 0.000000 7.432416 0.295026 0.533547 -19.574400 -5.228159 -13.841699 34.275631 -6.827090 1.364333 -13.933832 -11.358372 8.797480 0.000000 0.000000 0.000000 -0.284776 -4.642416 0.561745 -3.612113 -4.321483 1.166771 5.524142 -4.313313 -0.302731 1.437117 -1.167419 -0.154975 0.000000 0.000000 0.000000 1.330126 2.577908 -1.501420 -1.493765 0.954134 -0.549699 0.000000 0.000000 0.000000 -0.798026 1.467626 -1.565770 -0.297187 -6.178015 -9.328424 7.976106 4.975311 -62.377338 3.695810 -24.804471 -7.525015 0.000000 0.000000 0.000000 -0.506304 1.891295 -1.843332 -0.720677 9.401874 2.405673 5.413981 0.823335 59.679440 2.669165 31.495471 9.490042 0.000000 0.000000 0.000000 
0.648569 93.978096 4.635348 0.000000 0.000000 0.000000 8.823567 3.228713 -7.026394 -29.805901 14.242310 9.912819 30.313991 1.025523 1.746899 -17.254818 0.380470 -1.998810 0.000000 0.000000 0.000000 7.536120 0.509865 0.469354 -19.426100 -5.179295 -13.871706 34.534089 -6.740234 1.453785 -13.700330 -11.293978 8.979849 0.000000 0.000000 0.000000 -0.085369 -4.457645 0.693226 -3.676307 -3.282484 1.048253 5.564754 -4.477163 -0.232421 1.404811 -1.271166 -0.095603 0.000000 0.000000 0.000000 1.275287 2.626955 -1.440314 -1.537131 0.941772 -0.529817 0.000000 0.000000 0.000000 -1.020629 1.412218 -1.547291 -0.414441 -6.566365 -9.215671 8.362560 4.746041 -62.513778 3.763388 -25.491383 -7.589183 0.000000 0.000000 0.000000 -0.408589 1.897966 -1.905726 -0.559562 9.049841 2.400670 6.050309 1.123049 60.019201 3.064165 31.155734 9.520514 0.000000 0.000000 0.000000 
0.725237 93.914780 4.590724 0.000000 0.000000 0.000000 8.650881 3.877028 -7.196705 -30.102939 14.406510 9.845796 30.624304 0.885028 1.804918 -17.072188 0.217880 -2.014600 0.000000 0.000000 0.000000 7.615815 0.651135 0.420652 -19.310342 -5.149464 -13.894232 34.773511 -6.638978 1.510792 -13.482319 -11.199650 9.120485 0.000000 0.000000 0.000000 0.113014 -4.286681 0.829821 -3.715226 -2.375844 0.938191 5.690717 -4.599006 -0.181640 1.392135 -1.362422 -0.043269 0.000000 0.000000 0.000000 1.238526 2.674704 -1.384691 -1.571068 0.935762 -0.512828 0.000000 0.000000 0.000000 -1.205291 1.369432 -1.534305 -0.516814 -6.869903 -9.179866 8.564507 4.587802 -62.679102 3.732695 -26.148754 -7.690015 0.000000 0.000000 0.000000 -0.299644 1.895063 -1.945263 -0.408389 8.725366 2.443278 6.638974 1.424942 60.287457 3.422239 30.885733 9.518353 0.000000 0.000000 0.000000 
